<svg xmlns="http://www.w3.org/2000/svg" viewBox="0 0 600 1420" role="img" aria-label="Thirteen public projects arranged by their areas of work. Positions and star sizes are illustrative, not activity metrics."><title>Thirteen public projects arranged by their areas of work. Positions and star sizes are illustrative, not activity metrics.</title><style>.star{animation:glimmer 9s ease-in-out infinite}@keyframes glimmer{0%,100%{opacity:.65}50%{opacity:1}}@media(prefers-reduced-motion:reduce){.star{animation:none}}</style><rect width="600" height="1420" rx="12" fill="#F6F8FA"/><circle cx="109" cy="941" r="1.2" fill="#8BB7AA" opacity="0.25"/><circle cx="304" cy="1174" r="0.7" fill="#8BB7AA" opacity="0.18"/><circle cx="584" cy="684" r="0.7" fill="#8BB7AA" opacity="0.18"/><circle cx="357" cy="455" r="1.2" fill="#8BB7AA" opacity="0.25"/><circle cx="198" cy="149" r="0.7" fill="#8BB7AA" opacity="0.18"/><circle cx="66" cy="1176" r="0.7" fill="#8BB7AA" opacity="0.18"/><circle cx="407" cy="1303" r="1.2" fill="#8BB7AA" opacity="0.25"/><circle cx="587" cy="502" r="0.7" fill="#8BB7AA" opacity="0.18"/><circle cx="498" cy="1043" r="0.7" fill="#8BB7AA" opacity="0.18"/><circle cx="113" cy="605" r="1.2" fill="#8BB7AA" opacity="0.25"/><circle cx="98" cy="1380" r="0.7" fill="#8BB7AA" opacity="0.18"/><circle cx="393" cy="768" r="0.7" fill="#8BB7AA" opacity="0.18"/><circle cx="513" cy="607" r="1.2" fill="#8BB7AA" opacity="0.25"/><circle cx="559" cy="538" r="0.7" fill="#8BB7AA" opacity="0.18"/><circle cx="370" cy="619" r="0.7" fill="#8BB7AA" opacity="0.18"/><circle cx="563" cy="1309" r="1.2" fill="#8BB7AA" opacity="0.25"/><circle cx="57" cy="976" r="0.7" fill="#8BB7AA" opacity="0.18"/><circle cx="556" cy="1392" r="0.7" fill="#8BB7AA" opacity="0.18"/><circle cx="394" cy="1134" r="1.2" fill="#8BB7AA" opacity="0.25"/><circle cx="530" cy="557" r="0.7" fill="#8BB7AA" opacity="0.18"/><circle cx="399" cy="1105" r="0.7" fill="#8BB7AA" opacity="0.18"/><circle cx="246" cy="665" r="1.2" fill="#8BB7AA" opacity="0.25"/><circle cx="277" cy="1032" r="0.7" fill="#8BB7AA" opacity="0.18"/><circle cx="451" cy="603" r="0.7" fill="#8BB7AA" opacity="0.18"/><circle cx="251" cy="935" r="1.2" fill="#8BB7AA" opacity="0.25"/><circle cx="6" cy="353" r="0.7" fill="#8BB7AA" opacity="0.18"/><circle cx="12" cy="1271" r="0.7" fill="#8BB7AA" opacity="0.18"/><circle cx="5" cy="1065" r="1.2" fill="#8BB7AA" opacity="0.25"/><circle cx="186" cy="1316" r="0.7" fill="#8BB7AA" opacity="0.18"/><circle cx="228" cy="746" r="0.7" fill="#8BB7AA" opacity="0.18"/><circle cx="355" cy="893" r="1.2" fill="#8BB7AA" opacity="0.25"/><circle cx="88" cy="342" r="0.7" fill="#8BB7AA" opacity="0.18"/><circle cx="67" cy="269" r="0.7" fill="#8BB7AA" opacity="0.18"/><circle cx="483" cy="721" r="1.2" fill="#8BB7AA" opacity="0.25"/><circle cx="535" cy="1074" r="0.7" fill="#8BB7AA" opacity="0.18"/><circle cx="408" cy="1231" r="0.7" fill="#8BB7AA" opacity="0.18"/><circle cx="495" cy="431" r="1.2" fill="#8BB7AA" opacity="0.25"/><circle cx="511" cy="349" r="0.7" fill="#8BB7AA" opacity="0.18"/><circle cx="338" cy="244" r="0.7" fill="#8BB7AA" opacity="0.18"/><circle cx="364" cy="1158" r="1.2" fill="#8BB7AA" opacity="0.25"/><circle cx="237" cy="1160" r="0.7" fill="#8BB7AA" opacity="0.18"/><circle cx="566" cy="1263" r="0.7" fill="#8BB7AA" opacity="0.18"/><circle cx="404" cy="460" r="1.2" fill="#8BB7AA" opacity="0.25"/><circle cx="521" cy="1046" r="0.7" fill="#8BB7AA" opacity="0.18"/><circle cx="442" cy="456" r="0.7" fill="#8BB7AA" opacity="0.18"/><circle cx="395" cy="250" r="1.2" fill="#8BB7AA" opacity="0.25"/><circle cx="76" cy="426" r="0.7" fill="#8BB7AA" opacity="0.18"/><circle cx="446" cy="447" r="0.7" fill="#8BB7AA" opacity="0.18"/><circle cx="446" cy="540" r="1.2" fill="#8BB7AA" opacity="0.25"/><circle cx="361" cy="598" r="0.7" fill="#8BB7AA" opacity="0.18"/><circle cx="538" cy="161" r="0.7" fill="#8BB7AA" opacity="0.18"/><circle cx="287" cy="663" r="1.2" fill="#8BB7AA" opacity="0.25"/><circle cx="84" cy="326" r="0.7" fill="#8BB7AA" opacity="0.18"/><circle cx="381" cy="1169" r="0.7" fill="#8BB7AA" opacity="0.18"/><circle cx="511" cy="283" r="1.2" fill="#8BB7AA" opacity="0.25"/><circle cx="477" cy="680" r="0.7" fill="#8BB7AA" opacity="0.18"/><circle cx="368" cy="227" r="0.7" fill="#8BB7AA" opacity="0.18"/><circle cx="418" cy="1000" r="1.2" fill="#8BB7AA" opacity="0.25"/><circle cx="455" cy="924" r="0.7" fill="#8BB7AA" opacity="0.18"/><circle cx="76" cy="1076" r="0.7" fill="#8BB7AA" opacity="0.18"/><circle cx="360" cy="849" r="1.2" fill="#8BB7AA" opacity="0.25"/><circle cx="43" cy="940" r="0.7" fill="#8BB7AA" opacity="0.18"/><circle cx="374" cy="1111" r="0.7" fill="#8BB7AA" opacity="0.18"/><circle cx="170" cy="1383" r="1.2" fill="#8BB7AA" opacity="0.25"/><circle cx="449" cy="889" r="0.7" fill="#8BB7AA" opacity="0.18"/><circle cx="540" cy="555" r="0.7" fill="#8BB7AA" opacity="0.18"/><circle cx="528" cy="338" r="1.2" fill="#8BB7AA" opacity="0.25"/><circle cx="27" cy="1022" r="0.7" fill="#8BB7AA" opacity="0.18"/><circle cx="541" cy="558" r="0.7" fill="#8BB7AA" opacity="0.18"/><circle cx="475" cy="612" r="1.2" fill="#8BB7AA" opacity="0.25"/><circle cx="246" cy="296" r="0.7" fill="#8BB7AA" opacity="0.18"/><circle cx="271" cy="406" r="0.7" fill="#8BB7AA" opacity="0.18"/><circle cx="1" cy="571" r="1.2" fill="#8BB7AA" opacity="0.25"/><circle cx="273" cy="1364" r="0.7" fill="#8BB7AA" opacity="0.18"/><circle cx="345" cy="997" r="0.7" fill="#8BB7AA" opacity="0.18"/><circle cx="430" cy="448" r="1.2" fill="#8BB7AA" opacity="0.25"/><circle cx="215" cy="166" r="0.7" fill="#8BB7AA" opacity="0.18"/><circle cx="500" cy="1096" r="0.7" fill="#8BB7AA" opacity="0.18"/><circle cx="446" cy="1127" r="1.2" fill="#8BB7AA" opacity="0.25"/><circle cx="590" cy="842" r="0.7" fill="#8BB7AA" opacity="0.18"/><circle cx="477" cy="725" r="0.7" fill="#8BB7AA" opacity="0.18"/><circle cx="300" cy="734" r="1.2" fill="#8BB7AA" opacity="0.25"/><circle cx="274" cy="566" r="0.7" fill="#8BB7AA" opacity="0.18"/><circle cx="131" cy="759" r="0.7" fill="#8BB7AA" opacity="0.18"/><circle cx="588" cy="918" r="1.2" fill="#8BB7AA" opacity="0.25"/><circle cx="42" cy="1290" r="0.7" fill="#8BB7AA" opacity="0.18"/><circle cx="280" cy="777" r="0.7" fill="#8BB7AA" opacity="0.18"/><circle cx="1" cy="180" r="1.2" fill="#8BB7AA" opacity="0.25"/><circle cx="256" cy="462" r="0.7" fill="#8BB7AA" opacity="0.18"/><circle cx="569" cy="426" r="0.7" fill="#8BB7AA" opacity="0.18"/><circle cx="177" cy="298" r="1.2" fill="#8BB7AA" opacity="0.25"/><circle cx="135" cy="661" r="0.7" fill="#8BB7AA" opacity="0.18"/><circle cx="571" cy="1311" r="0.7" fill="#8BB7AA" opacity="0.18"/><circle cx="502" cy="338" r="1.2" fill="#8BB7AA" opacity="0.25"/><circle cx="189" cy="1175" r="0.7" fill="#8BB7AA" opacity="0.18"/><circle cx="536" cy="1026" r="0.7" fill="#8BB7AA" opacity="0.18"/><circle cx="21" cy="162" r="1.2" fill="#8BB7AA" opacity="0.25"/><circle cx="128" cy="177" r="0.7" fill="#8BB7AA" opacity="0.18"/><circle cx="424" cy="723" r="0.7" fill="#8BB7AA" opacity="0.18"/><circle cx="589" cy="283" r="1.2" fill="#8BB7AA" opacity="0.25"/><circle cx="485" cy="725" r="0.7" fill="#8BB7AA" opacity="0.18"/><circle cx="399" cy="405" r="0.7" fill="#8BB7AA" opacity="0.18"/><circle cx="127" cy="732" r="1.2" fill="#8BB7AA" opacity="0.25"/><circle cx="368" cy="742" r="0.7" fill="#8BB7AA" opacity="0.18"/><circle cx="268" cy="410" r="0.7" fill="#8BB7AA" opacity="0.18"/><circle cx="196" cy="907" r="1.2" fill="#8BB7AA" opacity="0.25"/><circle cx="397" cy="245" r="0.7" fill="#8BB7AA" opacity="0.18"/><circle cx="225" cy="635" r="0.7" fill="#8BB7AA" opacity="0.18"/><circle cx="119" cy="663" r="1.2" fill="#8BB7AA" opacity="0.25"/><circle cx="76" cy="261" r="0.7" fill="#8BB7AA" opacity="0.18"/><circle cx="125" cy="700" r="0.7" fill="#8BB7AA" opacity="0.18"/><circle cx="225" cy="754" r="1.2" fill="#8BB7AA" opacity="0.25"/><circle cx="230" cy="1161" r="0.7" fill="#8BB7AA" opacity="0.18"/><circle cx="316" cy="617" r="0.7" fill="#8BB7AA" opacity="0.18"/><circle cx="360" cy="1145" r="1.2" fill="#8BB7AA" opacity="0.25"/><circle cx="24" cy="1169" r="0.7" fill="#8BB7AA" opacity="0.18"/><circle cx="218" cy="401" r="0.7" fill="#8BB7AA" opacity="0.18"/><circle cx="167" cy="1093" r="1.2" fill="#8BB7AA" opacity="0.25"/><circle cx="593" cy="1068" r="0.7" fill="#8BB7AA" opacity="0.18"/><circle cx="22" cy="754" r="0.7" fill="#8BB7AA" opacity="0.18"/><circle cx="63" cy="899" r="1.2" fill="#8BB7AA" opacity="0.25"/><circle cx="269" cy="373" r="0.7" fill="#8BB7AA" opacity="0.18"/><circle cx="406" cy="479" r="0.7" fill="#8BB7AA" opacity="0.18"/><circle cx="117" cy="966" r="1.2" fill="#8BB7AA" opacity="0.25"/><circle cx="119" cy="214" r="0.7" fill="#8BB7AA" opacity="0.18"/><circle cx="581" cy="224" r="0.7" fill="#8BB7AA" opacity="0.18"/><circle cx="504" cy="1309" r="1.2" fill="#8BB7AA" opacity="0.25"/><circle cx="539" cy="458" r="0.7" fill="#8BB7AA" opacity="0.18"/><circle cx="429" cy="358" r="0.7" fill="#8BB7AA" opacity="0.18"/><circle cx="568" cy="876" r="1.2" fill="#8BB7AA" opacity="0.25"/><text x="40" y="62" fill="#17232B" font-size="26" font-family="Georgia, serif"><tspan x="40" dy="0">A constellation of work</tspan></text><text x="40" y="105" fill="#4F6269" font-size="16.67" font-family="Georgia, serif" font-style="italic"><tspan x="40" dy="0">Agent systems, decision tools,</tspan><tspan x="40" dy="22.504500000000004">and practical experiments.</tspan></text><text x="40" y="635" fill="#4F6269" font-size="18.67" font-family="Georgia, serif" font-style="italic"><tspan x="40" dy="0">Decision tools</tspan></text><path d="M106 680 L365 773" fill="none" stroke="#CCDAD7" stroke-width="1.7"/><path d="M106 680 L130 875" fill="none" stroke="#CCDAD7" stroke-width="1.7"/><path d="M365 773 L130 875" fill="none" stroke="#CCDAD7" stroke-width="1.7"/><path d="M130 875 L365 953" fill="none" stroke="#CCDAD7" stroke-width="1.7"/><g><circle cx="106" cy="680" r="19" fill="#087F62" opacity=".06"/><path d="M94 680 H118 M106 668 V692" stroke="#087F62" stroke-width=".8" opacity=".48"/><circle class="star" style="animation-delay:-0s" cx="106" cy="680" r="5.5" fill="#087F62"/></g><text x="132" y="675" fill="#17232B" font-size="18" font-family="Georgia, serif" text-anchor="start"><tspan x="132" dy="0">Decision Labs</tspan></text><g><circle cx="365" cy="773" r="12" fill="#087F62" opacity=".06"/><path d="M353 773 H377 M365 761 V785" stroke="#087F62" stroke-width=".8" opacity=".48"/><circle class="star" style="animation-delay:-1.7s" cx="365" cy="773" r="3.5" fill="#087F62"/></g><text x="339" y="752" fill="#4F6269" font-size="18" font-family="Georgia, serif" text-anchor="end"><tspan x="339" dy="0">Unconventional Moves</tspan></text><g><circle cx="130" cy="875" r="12" fill="#087F62" opacity=".06"/><path d="M118 875 H142 M130 863 V887" stroke="#087F62" stroke-width=".8" opacity=".48"/><circle class="star" style="animation-delay:-3.4s" cx="130" cy="875" r="3.5" fill="#087F62"/></g><text x="155" y="900" fill="#4F6269" font-size="18" font-family="Georgia, serif" text-anchor="start"><tspan x="155" dy="0">Crypto Research Desk</tspan></text><g><circle cx="365" cy="953" r="12" fill="#087F62" opacity=".06"/><path d="M353 953 H377 M365 941 V965" stroke="#087F62" stroke-width=".8" opacity=".48"/><circle class="star" style="animation-delay:-5.1s" cx="365" cy="953" r="3.5" fill="#087F62"/></g><text x="391" y="960" fill="#4F6269" font-size="18" font-family="Georgia, serif" text-anchor="start"><tspan x="391" dy="0">Stable Desk</tspan></text><text x="40" y="191" fill="#4F6269" font-size="18.67" font-family="Georgia, serif" font-style="italic"><tspan x="40" dy="0">Agent systems</tspan></text><path d="M115 242 L386 322" fill="none" stroke="#CCDAD7" stroke-width="1.7"/><path d="M115 242 L104 405" fill="none" stroke="#CCDAD7" stroke-width="1.7"/><path d="M386 322 L401 435" fill="none" stroke="#CCDAD7" stroke-width="1.7"/><path d="M104 405 L401 435" fill="none" stroke="#CCDAD7" stroke-width="1.7"/><path d="M104 405 L130 548" fill="none" stroke="#CCDAD7" stroke-width="1.7"/><path d="M401 435 L439 562" fill="none" stroke="#CCDAD7" stroke-width="1.7"/><g><circle cx="115" cy="242" r="19" fill="#087F62" opacity=".06"/><path d="M103 242 H127 M115 230 V254" stroke="#087F62" stroke-width=".8" opacity=".48"/><circle class="star" style="animation-delay:-8.5s" cx="115" cy="242" r="5.5" fill="#087F62"/></g><text x="142" y="237" fill="#17232B" font-size="18" font-family="Georgia, serif" text-anchor="start"><tspan x="142" dy="0">MandateBound</tspan></text><g><circle cx="386" cy="322" r="12" fill="#087F62" opacity=".06"/><path d="M374 322 H398 M386 310 V334" stroke="#087F62" stroke-width=".8" opacity=".48"/><circle class="star" style="animation-delay:-10.2s" cx="386" cy="322" r="3.5" fill="#087F62"/></g><text x="363" y="297" fill="#4F6269" font-size="18" font-family="Georgia, serif" text-anchor="end"><tspan x="363" dy="0">Agent Action Stack</tspan></text><g><circle cx="104" cy="405" r="12" fill="#087F62" opacity=".06"/><path d="M92 405 H116 M104 393 V417" stroke="#087F62" stroke-width=".8" opacity=".48"/><circle class="star" style="animation-delay:-11.9s" cx="104" cy="405" r="3.5" fill="#087F62"/></g><text x="130" y="420" fill="#4F6269" font-size="18" font-family="Georgia, serif" text-anchor="start"><tspan x="130" dy="0">Consequence Rail</tspan></text><g><circle cx="401" cy="435" r="12" fill="#087F62" opacity=".06"/><path d="M389 435 H413 M401 423 V447" stroke="#087F62" stroke-width=".8" opacity=".48"/><circle class="star" style="animation-delay:-13.6s" cx="401" cy="435" r="3.5" fill="#087F62"/></g><text x="375" y="464" fill="#4F6269" font-size="18" font-family="Georgia, serif" text-anchor="end"><tspan x="375" dy="0">Constitutional</tspan><tspan x="375" dy="24.3">Agent Testbench</tspan></text><g><circle cx="130" cy="548" r="12" fill="#087F62" opacity=".06"/><path d="M118 548 H142 M130 536 V560" stroke="#087F62" stroke-width=".8" opacity=".48"/><circle class="star" style="animation-delay:-15.299999999999999s" cx="130" cy="548" r="3.5" fill="#087F62"/></g><text x="156" y="559" fill="#4F6269" font-size="18" font-family="Georgia, serif" text-anchor="start"><tspan x="156" dy="0">Hermes parallel</tspan><tspan x="156" dy="24.3">follow-ups</tspan></text><g><circle cx="439" cy="562" r="12" fill="#087F62" opacity=".06"/><path d="M427 562 H451 M439 550 V574" stroke="#087F62" stroke-width=".8" opacity=".48"/><circle class="star" style="animation-delay:-17s" cx="439" cy="562" r="3.5" fill="#087F62"/></g><text x="465" y="560" fill="#4F6269" font-size="18" font-family="Georgia, serif" text-anchor="start"><tspan x="465" dy="0">Agent</tspan><tspan x="465" dy="24.3">Team</tspan></text><text x="40" y="1060" fill="#4F6269" font-size="18.67" font-family="Georgia, serif" font-style="italic"><tspan x="40" dy="0">Practical experiments</tspan></text><path d="M100 1116 L390 1190" fill="none" stroke="#CCDAD7" stroke-width="1.7"/><path d="M100 1116 L215 1325" fill="none" stroke="#CCDAD7" stroke-width="1.7"/><path d="M390 1190 L215 1325" fill="none" stroke="#CCDAD7" stroke-width="1.7"/><g><circle cx="100" cy="1116" r="12" fill="#087F62" opacity=".06"/><path d="M88 1116 H112 M100 1104 V1128" stroke="#087F62" stroke-width=".8" opacity=".48"/><circle class="star" style="animation-delay:-17s" cx="100" cy="1116" r="3.5" fill="#087F62"/></g><text x="126" y="1110" fill="#4F6269" font-size="18" font-family="Georgia, serif" text-anchor="start"><tspan x="126" dy="0">Operator Labs</tspan></text><g><circle cx="390" cy="1190" r="12" fill="#087F62" opacity=".06"/><path d="M378 1190 H402 M390 1178 V1202" stroke="#087F62" stroke-width=".8" opacity=".48"/><circle class="star" style="animation-delay:-18.7s" cx="390" cy="1190" r="3.5" fill="#087F62"/></g><text x="363" y="1168" fill="#4F6269" font-size="18" font-family="Georgia, serif" text-anchor="end"><tspan x="363" dy="0">connect.md</tspan></text><g><circle cx="215" cy="1325" r="12" fill="#087F62" opacity=".06"/><path d="M203 1325 H227 M215 1313 V1337" stroke="#087F62" stroke-width=".8" opacity=".48"/><circle class="star" style="animation-delay:-20.4s" cx="215" cy="1325" r="3.5" fill="#087F62"/></g><text x="242" y="1335" fill="#4F6269" font-size="18" font-family="Georgia, serif" text-anchor="start"><tspan x="242" dy="0">llms.txt</tspan><tspan x="242" dy="24.3">personal site</tspan></text></svg>
