<svg xmlns="http://www.w3.org/2000/svg" viewBox="0 0 600 560" role="img" aria-label="Hermes Parallel Follow-ups. Reversible patches for a documented source revision, with bounded concurrency and cancellation tests."><title>Hermes Parallel Follow-ups. Reversible patches for a documented source revision, with bounded concurrency and cancellation tests.</title><style>.star{animation:glimmer 9s ease-in-out infinite}@keyframes glimmer{0%,100%{opacity:.65}50%{opacity:1}}@media(prefers-reduced-motion:reduce){.star{animation:none}}</style><rect width="600" height="560" rx="12" fill="#111820"/><text x="40" y="76" fill="#E9F0F3" font-size="35.83" font-family="Georgia, serif"><tspan x="40" dy="0">Hermes follow-ups</tspan></text><text x="42" y="123" fill="#B4C6CB" font-size="20.83" font-family="Georgia, serif" font-style="italic"><tspan x="42" dy="0">Separate messages. Predictable execution.</tspan></text><text x="42" y="182" fill="#B4C6CB" font-size="22.5" font-family="Georgia, serif"><tspan x="42" dy="0">Bound concurrency. Test cancellation.</tspan><tspan x="42" dy="30.375000000000004">Keep the patch reversible.</tspan></text><path d="M42 303 L558 303" fill="none" stroke="#344B4A" stroke-width="1.7"/><text x="44" y="343" fill="#B4C6CB" font-size="20.83" font-family="Georgia, serif" font-style="italic"><tspan x="44" dy="0">Independent message scopes</tspan></text><g><circle cx="52" cy="398" r="19" fill="#5DDBAE" opacity=".06"/><path d="M40 398 H64 M52 386 V410" stroke="#5DDBAE" stroke-width=".8" opacity=".48"/><circle class="star" style="animation-delay:-0s" cx="52" cy="398" r="5.5" fill="#5DDBAE"/></g><path d="M69 398 L466 398" fill="none" stroke="#344B4A" stroke-width="1.7"/><g><circle cx="466" cy="398" r="12" fill="#5DDBAE" opacity=".06"/><path d="M454 398 H478 M466 386 V410" stroke="#5DDBAE" stroke-width=".8" opacity=".48"/><circle class="star" style="animation-delay:-1.7s" cx="466" cy="398" r="3.5" fill="#5DDBAE"/></g><text x="91" y="386" fill="#B4C6CB" font-size="20" font-family="Georgia, serif"><tspan x="91" dy="0">Message A</tspan></text><g><circle cx="52" cy="455" r="19" fill="#5DDBAE" opacity=".06"/><path d="M40 455 H64 M52 443 V467" stroke="#5DDBAE" stroke-width=".8" opacity=".48"/><circle class="star" style="animation-delay:-1.7s" cx="52" cy="455" r="5.5" fill="#5DDBAE"/></g><path d="M69 455 L466 455" fill="none" stroke="#344B4A" stroke-width="1.7"/><g><circle cx="466" cy="455" r="12" fill="#5DDBAE" opacity=".06"/><path d="M454 455 H478 M466 443 V467" stroke="#5DDBAE" stroke-width=".8" opacity=".48"/><circle class="star" style="animation-delay:-3.4s" cx="466" cy="455" r="3.5" fill="#5DDBAE"/></g><text x="91" y="443" fill="#B4C6CB" font-size="20" font-family="Georgia, serif"><tspan x="91" dy="0">Message B</tspan></text><g><circle cx="52" cy="512" r="19" fill="#5DDBAE" opacity=".06"/><path d="M40 512 H64 M52 500 V524" stroke="#5DDBAE" stroke-width=".8" opacity=".48"/><circle class="star" style="animation-delay:-3.4s" cx="52" cy="512" r="5.5" fill="#5DDBAE"/></g><path d="M69 512 L466 512" fill="none" stroke="#344B4A" stroke-width="1.7"/><g><circle cx="466" cy="512" r="12" fill="#5DDBAE" opacity=".06"/><path d="M454 512 H478 M466 500 V524" stroke="#5DDBAE" stroke-width=".8" opacity=".48"/><circle class="star" style="animation-delay:-5.1s" cx="466" cy="512" r="3.5" fill="#5DDBAE"/></g><text x="91" y="500" fill="#B4C6CB" font-size="20" font-family="Georgia, serif"><tspan x="91" dy="0">Message C</tspan></text></svg>
